<svg width="80" height="80" viewBox="0 0 80 80" fill="none" xmlns="http://www.w3.org/2000/svg">
<path d="M29.9938 27.6944C29.9938 30.287 27.9051 32.3887 25.3286 32.3887C22.752 32.3887 20.6634 30.287 20.6634 27.6944C20.6634 25.1017 22.752 23 25.3286 23C27.9051 23 29.9938 25.1017 29.9938 27.6944Z" fill="url(#paint0_linear_104_48)"/>
<path d="M19.3304 41.7775C16.8558 41.7775 14.4826 40.7883 12.7328 39.0276C10.983 37.2669 10 34.8788 10 32.3887C10 29.8987 10.983 27.5106 12.7328 25.7499C14.4826 23.9892 16.8558 23 19.3304 23L19.3304 41.7775Z" fill="url(#paint1_linear_104_48)"/>
<path d="M20.6634 37.7537C23.1379 37.7537 25.5112 38.7429 27.261 40.5036C29.0108 42.2644 29.9938 44.6524 29.9938 47.1425C29.9938 49.6325 29.0108 52.0206 27.261 53.7813C25.5112 55.5421 23.1379 56.5312 20.6634 56.5312L20.6634 37.7537Z" fill="url(#paint2_linear_104_48)"/>
<path d="M32.6596 37.7537C35.1102 37.7537 37.5368 38.2394 39.8008 39.1831C42.0649 40.1268 44.122 41.5099 45.8548 43.2536C47.5877 44.9972 48.9622 47.0672 49.9 49.3454C50.8378 51.6236 51.3205 54.0654 51.3205 56.5312L32.6596 56.5312V37.7537Z" fill="url(#paint3_linear_104_48)"/>
<path d="M19.3304 51.8369C19.3304 54.4295 17.2417 56.5312 14.6652 56.5312C12.0887 56.5312 10 54.4295 10 51.8369C10 49.2442 12.0887 47.1425 14.6652 47.1425C17.2417 47.1425 19.3304 49.2442 19.3304 51.8369Z" fill="url(#paint4_linear_104_48)"/>
<path d="M32.6596 23H42.6565C46.7053 23 49.9876 26.3027 49.9876 30.3769C49.9876 34.451 46.7053 37.7537 42.6565 37.7537H32.6596V23Z" fill="url(#paint5_linear_104_48)"/>
<path d="M53.0726 29.7062C53.0924 29.4854 53.1025 29.2617 53.1025 29.0356C53.1025 26.5407 51.8716 24.335 49.9876 23H67.982C69.8224 23 71.3143 24.5012 71.3143 26.3531C71.3143 28.205 69.8224 29.7062 67.982 29.7062H53.0726Z" fill="url(#paint6_linear_104_48)"/>
<path d="M55.3061 56.5312C55.3148 56.3088 55.3192 56.0852 55.3192 55.8606C55.3192 53.7329 54.9253 51.6978 54.2069 49.825H67.982C69.8224 49.825 71.3143 51.3262 71.3143 53.1781C71.3143 55.03 69.8224 56.5312 67.982 56.5312H55.3061Z" fill="url(#paint7_linear_104_48)"/>
<path d="M52.6235 36.4125C52.4872 37.9341 51.8918 39.3225 50.9777 40.4362C51.8918 41.55 52.4872 42.9384 52.6235 44.46H59.318C61.5264 44.46 63.3167 42.6585 63.3167 40.4362C63.3167 38.214 61.5264 36.4125 59.318 36.4125H52.6235Z" fill="url(#paint8_linear_104_48)"/>
<defs>
<linearGradient id="paint0_linear_104_48" x1="11.4371" y1="42.6397" x2="74.1884" y2="42.6397" gradientUnits="userSpaceOnUse">
<stop stop-color="#709DFF"/>
<stop offset="0.338402" stop-color="#AC75FE"/>
<stop offset="0.574396" stop-color="#ED89EB"/>
<stop offset="0.88501" stop-color="#FFA7AE"/>
</linearGradient>
<linearGradient id="paint1_linear_104_48" x1="11.4371" y1="42.6397" x2="74.1884" y2="42.6397" gradientUnits="userSpaceOnUse">
<stop stop-color="#709DFF"/>
<stop offset="0.338402" stop-color="#AC75FE"/>
<stop offset="0.574396" stop-color="#ED89EB"/>
<stop offset="0.88501" stop-color="#FFA7AE"/>
</linearGradient>
<linearGradient id="paint2_linear_104_48" x1="11.4371" y1="42.6397" x2="74.1884" y2="42.6397" gradientUnits="userSpaceOnUse">
<stop stop-color="#709DFF"/>
<stop offset="0.338402" stop-color="#AC75FE"/>
<stop offset="0.574396" stop-color="#ED89EB"/>
<stop offset="0.88501" stop-color="#FFA7AE"/>
</linearGradient>
<linearGradient id="paint3_linear_104_48" x1="11.4371" y1="42.6397" x2="74.1884" y2="42.6397" gradientUnits="userSpaceOnUse">
<stop stop-color="#709DFF"/>
<stop offset="0.338402" stop-color="#AC75FE"/>
<stop offset="0.574396" stop-color="#ED89EB"/>
<stop offset="0.88501" stop-color="#FFA7AE"/>
</linearGradient>
<linearGradient id="paint4_linear_104_48" x1="11.4371" y1="42.6397" x2="74.1884" y2="42.6397" gradientUnits="userSpaceOnUse">
<stop stop-color="#709DFF"/>
<stop offset="0.338402" stop-color="#AC75FE"/>
<stop offset="0.574396" stop-color="#ED89EB"/>
<stop offset="0.88501" stop-color="#FFA7AE"/>
</linearGradient>
<linearGradient id="paint5_linear_104_48" x1="11.4371" y1="42.6397" x2="74.1884" y2="42.6397" gradientUnits="userSpaceOnUse">
<stop stop-color="#709DFF"/>
<stop offset="0.338402" stop-color="#AC75FE"/>
<stop offset="0.574396" stop-color="#ED89EB"/>
<stop offset="0.88501" stop-color="#FFA7AE"/>
</linearGradient>
<linearGradient id="paint6_linear_104_48" x1="11.4371" y1="42.6397" x2="74.1884" y2="42.6397" gradientUnits="userSpaceOnUse">
<stop stop-color="#709DFF"/>
<stop offset="0.338402" stop-color="#AC75FE"/>
<stop offset="0.574396" stop-color="#ED89EB"/>
<stop offset="0.88501" stop-color="#FFA7AE"/>
</linearGradient>
<linearGradient id="paint7_linear_104_48" x1="11.4371" y1="42.6397" x2="74.1884" y2="42.6397" gradientUnits="userSpaceOnUse">
<stop stop-color="#709DFF"/>
<stop offset="0.338402" stop-color="#AC75FE"/>
<stop offset="0.574396" stop-color="#ED89EB"/>
<stop offset="0.88501" stop-color="#FFA7AE"/>
</linearGradient>
<linearGradient id="paint8_linear_104_48" x1="11.4371" y1="42.6397" x2="74.1884" y2="42.6397" gradientUnits="userSpaceOnUse">
<stop stop-color="#709DFF"/>
<stop offset="0.338402" stop-color="#AC75FE"/>
<stop offset="0.574396" stop-color="#ED89EB"/>
<stop offset="0.88501" stop-color="#FFA7AE"/>
</linearGradient>
</defs>
</svg>
